# xmcd
#
# Track frame offsets: 
#        150
#        3915
#        13610
#        27360
#        40555
#        59935
#        77432
#        94435
#        110112
#        122352
#        136572
#        149340
#        158795
#        180000
#        186230
#        200285
#        218927
#
# Disc length: 3059 seconds
#
# Revision: 8
# Processed by: cddbd v1.5.2PL0 Copyright (c) Steve Scherf et al.
# Submitted via: ExactAudioCopy v0.99pb3
#
DISCID=dc0bf111
DTITLE=Various Artist - Alan Lomax - Prison Songs - Historical Record
DTITLE=ings From Parchman Farm, 1947-1948 - Volume 1: Murderous Home
DYEAR=1997
DGENRE=Blues
TTITLE0=Jimpson And Group - The Murderer's Home
TTITLE1=Jimpson And Axe Gang - No More, My Lord
TTITLE2=B.B. And Group - Old Alabama
TTITLE3=B.B. And Group - Black Woman
TTITLE4=Tangle Eye, Fuzzy Red, Hard Hair and Group - Jumpin' Judy
TTITLE5=C.B. - Whoa Buck
TTITLE6="22" - Prettiest Train
TTITLE7="22" And Group - Old Dollar Mamie
TTITLE8="22" And Group - It Makes A Long Man Time Feel Bad
TTITLE9=C.B. And Axe Gang - Rosie
TTITLE10=Bama - Levee Camp Holler
TTITLE11=Bama - What Makes A Work Song Leader? (Interview)
TTITLE12="22" With Little Red, Tangle Eye and Hard Hair - Early In The M
TTITLE12=ornin'
TTITLE13=Bama - How I Got In The Penitentiary (Interview)
TTITLE14=Tangle Eye - Tangle Eye Blues
TTITLE15=Bama - Stackerlee
TTITLE16=Alex - Prison Blues
EXTD=YEAR: 1947
EXTT0=
EXTT1=
EXTT2=
EXTT3=
EXTT4=
EXTT5=
EXTT6=
EXTT7=
EXTT8=
EXTT9=
EXTT10=
EXTT11=
EXTT12=
EXTT13=
EXTT14=
EXTT15=
EXTT16=
PLAYORDER=
